<svg width="82" height="82" viewBox="0 0 82 82" fill="none" xmlns="http://www.w3.org/2000/svg">
<path fill-rule="evenodd" clip-rule="evenodd" d="M54.1535 8.54406C56.3094 8.54406 58.4619 8.84815 60.5085 9.5349C73.1194 13.6349 77.6636 27.4724 73.8676 39.5674C71.7151 45.7481 68.196 51.3891 63.5869 55.9981C56.9893 62.3873 49.7494 68.059 41.956 72.9448L41.1018 73.4607L40.2135 72.9106C32.3927 68.059 25.1118 62.3873 18.4527 55.964C13.8744 51.3549 10.3518 45.7481 8.16515 39.5674C4.30432 27.4724 8.84849 13.6349 21.5961 9.46315C22.5869 9.12148 23.6085 8.88231 24.6335 8.74906H25.0435C26.0036 8.60898 26.9568 8.54406 27.9135 8.54406H28.2893C30.4418 8.60898 32.526 8.98481 34.5452 9.67156H34.7468C34.8835 9.73648 34.986 9.80823 35.0543 9.87315C35.8094 10.1157 36.5235 10.3891 37.2068 10.7649L38.5052 11.3457C38.8189 11.5131 39.171 11.7687 39.4753 11.9897C39.6682 12.1297 39.8418 12.2557 39.9743 12.3366C40.0301 12.3695 40.0867 12.4025 40.1439 12.4359C40.4368 12.6069 40.742 12.785 40.9993 12.9823C44.7952 10.0816 49.4043 8.5099 54.1535 8.54406ZM63.2418 33.1441C64.6426 33.1065 65.8385 31.9824 65.941 30.544V30.1374C66.0435 25.3506 63.1427 21.0149 58.7318 19.3407C57.331 18.859 55.7935 19.6141 55.281 21.0491C54.8026 22.4841 55.5543 24.0557 56.9893 24.5648C59.1794 25.3848 60.6451 27.5407 60.6451 29.929V30.0349C60.5802 30.8173 60.816 31.5724 61.2943 32.1532C61.7726 32.7341 62.4901 33.0723 63.2418 33.1441Z" fill="#9944EE"/>
</svg>
