<svg width="402" height="67" viewBox="0 0 402 67" fill="none" xmlns="http://www.w3.org/2000/svg">
<path fill-rule="evenodd" clip-rule="evenodd" d="M48.1535 0.544064C50.3094 0.544064 52.4619 0.848147 54.5085 1.5349C67.1194 5.6349 71.6636 19.4724 67.8676 31.5674C65.7151 37.7481 62.196 43.3891 57.5869 47.9981C50.9893 54.3873 43.7494 60.059 35.956 64.9448L35.1018 65.4607L34.2135 64.9106C26.3927 60.059 19.1118 54.3873 12.4527 47.964C7.8744 43.3549 4.35182 37.7481 2.16515 31.5674C-1.69568 19.4724 2.84849 5.6349 15.5961 1.46315C16.5869 1.12148 17.6085 0.882314 18.6335 0.749064H19.0435C20.0036 0.60898 20.9568 0.544064 21.9135 0.544064H22.2893C24.4418 0.60898 26.526 0.984814 28.5452 1.67156H28.7468C28.8835 1.73648 28.986 1.80823 29.0543 1.87315C29.8094 2.11573 30.5235 2.38906 31.2068 2.7649L32.5052 3.34573C32.8189 3.51305 33.171 3.76871 33.4753 3.98967C33.6682 4.12967 33.8418 4.25573 33.9743 4.33656C34.0301 4.36946 34.0867 4.40254 34.1439 4.43588C34.4368 4.60689 34.742 4.78503 34.9993 4.98231C38.7952 2.08156 43.4043 0.509897 48.1535 0.544064ZM57.2418 25.1441C58.6426 25.1065 59.8385 23.9824 59.941 22.544V22.1374C60.0435 17.3506 57.1427 13.0149 52.7318 11.3407C51.331 10.859 49.7935 11.6141 49.281 13.0491C48.8026 14.4841 49.5543 16.0557 50.9893 16.5648C53.1794 17.3848 54.6451 19.5407 54.6451 21.929V22.0349C54.5802 22.8173 54.816 23.5724 55.2943 24.1532C55.7726 24.7341 56.4901 25.0723 57.2418 25.1441Z" fill="#9944EE"/>
<path d="M80.896 50C80.576 50 80.304 49.888 80.08 49.664C79.856 49.44 79.744 49.168 79.744 48.848V17.6C79.744 17.248 79.84 16.96 80.032 16.736C80.256 16.512 80.544 16.4 80.896 16.4H93.76C97.6 16.4 100.624 17.312 102.832 19.136C105.04 20.928 106.144 23.568 106.144 27.056C106.144 30.544 105.04 33.184 102.832 34.976C100.656 36.736 97.632 37.616 93.76 37.616H86.608V48.848C86.608 49.168 86.496 49.44 86.272 49.664C86.08 49.888 85.808 50 85.456 50H80.896ZM93.52 32.288C95.376 32.288 96.8 31.856 97.792 30.992C98.784 30.096 99.28 28.784 99.28 27.056C99.28 25.392 98.8 24.096 97.84 23.168C96.88 22.208 95.44 21.728 93.52 21.728H86.512V32.288H93.52ZM111.961 50C111.641 50 111.369 49.888 111.145 49.664C110.921 49.44 110.809 49.168 110.809 48.848V26.24C110.809 25.92 110.921 25.648 111.145 25.424C111.369 25.168 111.641 25.04 111.961 25.04H115.849C116.201 25.04 116.489 25.152 116.713 25.376C116.937 25.6 117.049 25.888 117.049 26.24V28.208C117.817 27.184 118.777 26.4 119.929 25.856C121.113 25.312 122.457 25.04 123.961 25.04H125.929C126.281 25.04 126.553 25.152 126.745 25.376C126.969 25.568 127.081 25.84 127.081 26.192V29.648C127.081 29.968 126.969 30.24 126.745 30.464C126.553 30.688 126.281 30.8 125.929 30.8H122.185C120.681 30.8 119.497 31.232 118.633 32.096C117.769 32.96 117.337 34.144 117.337 35.648V48.848C117.337 49.168 117.225 49.44 117.001 49.664C116.777 49.888 116.489 50 116.137 50H111.961ZM141.248 50.48C137.696 50.48 134.864 49.456 132.752 47.408C130.672 45.328 129.568 42.416 129.44 38.672L129.392 37.472L129.44 36.272C129.6 32.624 130.72 29.76 132.8 27.68C134.912 25.6 137.728 24.56 141.248 24.56C145.024 24.56 147.936 25.712 149.984 28.016C152.064 30.32 153.104 33.392 153.104 37.232V38.24C153.104 38.56 152.992 38.832 152.768 39.056C152.544 39.28 152.256 39.392 151.904 39.392H135.968V39.776C136.032 41.536 136.512 43.024 137.408 44.24C138.336 45.424 139.6 46.016 141.2 46.016C143.088 46.016 144.608 45.28 145.76 43.808C146.048 43.456 146.272 43.232 146.432 43.136C146.624 43.04 146.896 42.992 147.248 42.992H151.376C151.664 42.992 151.904 43.088 152.096 43.28C152.32 43.44 152.432 43.648 152.432 43.904C152.432 44.672 151.968 45.584 151.04 46.64C150.144 47.664 148.848 48.56 147.152 49.328C145.456 50.096 143.488 50.48 141.248 50.48ZM146.576 35.36V35.216C146.576 33.328 146.096 31.808 145.136 30.656C144.208 29.504 142.912 28.928 141.248 28.928C139.584 28.928 138.288 29.504 137.36 30.656C136.432 31.808 135.968 33.328 135.968 35.216V35.36H146.576ZM167.655 50.48C165.255 50.48 163.239 50.128 161.607 49.424C159.975 48.688 158.759 47.84 157.959 46.88C157.191 45.888 156.807 45.04 156.807 44.336C156.807 44.016 156.919 43.76 157.143 43.568C157.367 43.376 157.623 43.28 157.911 43.28H161.703C161.991 43.28 162.231 43.392 162.423 43.616C162.551 43.712 162.887 44 163.431 44.48C163.975 44.992 164.615 45.392 165.351 45.68C166.087 45.968 166.903 46.112 167.799 46.112C169.079 46.112 170.135 45.856 170.967 45.344C171.799 44.832 172.215 44.128 172.215 43.232C172.215 42.56 172.023 42.016 171.639 41.6C171.287 41.184 170.631 40.816 169.671 40.496C168.711 40.144 167.287 39.776 165.399 39.392C162.679 38.816 160.663 37.936 159.351 36.752C158.071 35.568 157.431 34 157.431 32.048C157.431 30.768 157.815 29.568 158.583 28.448C159.351 27.296 160.487 26.368 161.991 25.664C163.527 24.928 165.351 24.56 167.463 24.56C169.607 24.56 171.463 24.912 173.031 25.616C174.599 26.288 175.783 27.104 176.583 28.064C177.415 28.992 177.831 29.824 177.831 30.56C177.831 30.848 177.719 31.104 177.495 31.328C177.303 31.52 177.063 31.616 176.775 31.616H173.223C172.967 31.616 172.695 31.504 172.407 31.28C172.183 31.12 171.831 30.816 171.351 30.368C170.871 29.92 170.311 29.568 169.671 29.312C169.031 29.056 168.279 28.928 167.415 28.928C166.231 28.928 165.303 29.184 164.631 29.696C163.991 30.208 163.671 30.88 163.671 31.712C163.671 32.32 163.831 32.816 164.151 33.2C164.471 33.584 165.095 33.952 166.023 34.304C166.951 34.656 168.343 35.008 170.199 35.36C173.271 35.968 175.463 36.912 176.775 38.192C178.119 39.472 178.791 41.04 178.791 42.896C178.791 45.136 177.815 46.96 175.863 48.368C173.911 49.776 171.175 50.48 167.655 50.48ZM194.546 50.48C191.026 50.48 188.21 49.504 186.098 47.552C184.018 45.6 182.914 42.896 182.786 39.44L182.738 37.52L182.786 35.6C182.914 32.144 184.018 29.44 186.098 27.488C188.21 25.536 191.026 24.56 194.546 24.56C197.042 24.56 199.154 25.008 200.882 25.904C202.642 26.8 203.938 27.904 204.77 29.216C205.634 30.496 206.098 31.712 206.162 32.864C206.194 33.184 206.082 33.456 205.826 33.68C205.602 33.904 205.33 34.016 205.01 34.016H200.786C200.466 34.016 200.21 33.952 200.018 33.824C199.858 33.664 199.698 33.408 199.538 33.056C199.058 31.808 198.418 30.912 197.618 30.368C196.85 29.824 195.858 29.552 194.642 29.552C193.01 29.552 191.73 30.08 190.802 31.136C189.874 32.16 189.378 33.728 189.314 35.84L189.266 37.616L189.314 39.2C189.442 43.392 191.218 45.488 194.642 45.488C195.89 45.488 196.898 45.216 197.666 44.672C198.434 44.128 199.058 43.232 199.538 41.984C199.698 41.632 199.858 41.392 200.018 41.264C200.21 41.104 200.466 41.024 200.786 41.024H205.01C205.33 41.024 205.602 41.136 205.826 41.36C206.082 41.584 206.194 41.856 206.162 42.176C206.098 43.296 205.65 44.496 204.818 45.776C203.986 47.056 202.706 48.16 200.978 49.088C199.25 50.016 197.106 50.48 194.546 50.48ZM212.128 20.912C211.808 20.912 211.536 20.8 211.312 20.576C211.088 20.352 210.976 20.08 210.976 19.76V16.304C210.976 15.984 211.088 15.712 211.312 15.488C211.536 15.264 211.808 15.152 212.128 15.152H216.496C216.816 15.152 217.088 15.264 217.312 15.488C217.568 15.712 217.696 15.984 217.696 16.304V19.76C217.696 20.08 217.584 20.352 217.36 20.576C217.136 20.8 216.848 20.912 216.496 20.912H212.128ZM212.32 50C212 50 211.728 49.888 211.504 49.664C211.28 49.44 211.168 49.168 211.168 48.848V26.192C211.168 25.872 211.28 25.6 211.504 25.376C211.728 25.152 212 25.04 212.32 25.04H216.304C216.656 25.04 216.928 25.152 217.12 25.376C217.344 25.568 217.456 25.84 217.456 26.192V48.848C217.456 49.168 217.344 49.44 217.12 49.664C216.928 49.888 216.656 50 216.304 50H212.32ZM237.648 50.48C234.352 50.48 231.792 49.344 229.968 47.072V48.848C229.968 49.168 229.856 49.44 229.632 49.664C229.44 49.888 229.168 50 228.816 50H225.024C224.704 50 224.432 49.888 224.208 49.664C223.984 49.44 223.872 49.168 223.872 48.848V17.072C223.872 16.72 223.984 16.448 224.208 16.256C224.432 16.032 224.704 15.92 225.024 15.92H229.104C229.456 15.92 229.728 16.032 229.92 16.256C230.144 16.448 230.256 16.72 230.256 17.072V27.728C232.08 25.616 234.544 24.56 237.648 24.56C240.88 24.56 243.36 25.616 245.088 27.728C246.816 29.84 247.744 32.576 247.872 35.936C247.904 36.32 247.92 36.832 247.92 37.472C247.92 38.144 247.904 38.672 247.872 39.056C247.744 42.512 246.816 45.28 245.088 47.36C243.36 49.44 240.88 50.48 237.648 50.48ZM235.872 45.344C239.328 45.344 241.168 43.216 241.392 38.96C241.424 38.64 241.44 38.16 241.44 37.52C241.44 36.88 241.424 36.4 241.392 36.08C241.168 31.824 239.328 29.696 235.872 29.696C234.08 29.696 232.704 30.272 231.744 31.424C230.816 32.544 230.32 33.904 230.256 35.504L230.208 37.328L230.256 39.2C230.352 40.928 230.848 42.384 231.744 43.568C232.64 44.752 234.016 45.344 235.872 45.344ZM264.014 50.48C260.462 50.48 257.63 49.456 255.518 47.408C253.438 45.328 252.334 42.416 252.206 38.672L252.158 37.472L252.206 36.272C252.366 32.624 253.486 29.76 255.566 27.68C257.678 25.6 260.494 24.56 264.014 24.56C267.79 24.56 270.702 25.712 272.75 28.016C274.83 30.32 275.87 33.392 275.87 37.232V38.24C275.87 38.56 275.758 38.832 275.534 39.056C275.31 39.28 275.022 39.392 274.67 39.392H258.734V39.776C258.798 41.536 259.278 43.024 260.174 44.24C261.102 45.424 262.366 46.016 263.966 46.016C265.854 46.016 267.374 45.28 268.526 43.808C268.814 43.456 269.038 43.232 269.198 43.136C269.39 43.04 269.662 42.992 270.014 42.992H274.142C274.43 42.992 274.67 43.088 274.862 43.28C275.086 43.44 275.198 43.648 275.198 43.904C275.198 44.672 274.734 45.584 273.806 46.64C272.91 47.664 271.614 48.56 269.918 49.328C268.222 50.096 266.254 50.48 264.014 50.48ZM269.342 35.36V35.216C269.342 33.328 268.862 31.808 267.902 30.656C266.974 29.504 265.678 28.928 264.014 28.928C262.35 28.928 261.054 29.504 260.126 30.656C259.198 31.808 258.734 33.328 258.734 35.216V35.36H269.342ZM282.741 50C282.389 50 282.101 49.904 281.877 49.712C281.653 49.488 281.541 49.2 281.541 48.848V17.6C281.541 17.248 281.653 16.96 281.877 16.736C282.101 16.512 282.389 16.4 282.741 16.4H286.533C287.205 16.4 287.685 16.704 287.973 17.312L297.237 34.592L306.597 17.312C306.917 16.704 307.397 16.4 308.037 16.4H311.781C312.133 16.4 312.421 16.512 312.645 16.736C312.869 16.96 312.981 17.248 312.981 17.6V48.848C312.981 49.2 312.869 49.488 312.645 49.712C312.421 49.904 312.133 50 311.781 50H307.749C307.429 50 307.157 49.888 306.933 49.664C306.709 49.44 306.597 49.168 306.597 48.848V28.064L299.877 40.88C299.461 41.584 298.917 41.936 298.245 41.936H296.277C295.605 41.936 295.061 41.584 294.645 40.88L287.925 28.064V48.848C287.925 49.168 287.813 49.44 287.589 49.664C287.397 49.888 287.125 50 286.773 50H282.741ZM327.119 50.48C325.487 50.48 323.983 50.16 322.607 49.52C321.263 48.848 320.191 47.952 319.391 46.832C318.623 45.712 318.239 44.48 318.239 43.136C318.239 40.96 319.119 39.2 320.879 37.856C322.639 36.512 325.055 35.6 328.127 35.12L334.703 34.16V33.152C334.703 31.744 334.351 30.688 333.647 29.984C332.943 29.28 331.807 28.928 330.239 28.928C329.183 28.928 328.319 29.136 327.647 29.552C327.007 29.936 326.495 30.32 326.111 30.704C325.727 31.12 325.471 31.392 325.343 31.52C325.215 31.904 324.975 32.096 324.623 32.096H320.927C320.639 32.096 320.383 32 320.159 31.808C319.967 31.616 319.871 31.36 319.871 31.04C319.903 30.24 320.287 29.328 321.023 28.304C321.791 27.28 322.959 26.4 324.527 25.664C326.095 24.928 328.015 24.56 330.287 24.56C334.063 24.56 336.815 25.408 338.543 27.104C340.271 28.8 341.135 31.024 341.135 33.776V48.848C341.135 49.168 341.023 49.44 340.799 49.664C340.607 49.888 340.335 50 339.983 50H336.095C335.775 50 335.503 49.888 335.279 49.664C335.055 49.44 334.943 49.168 334.943 48.848V46.976C334.239 48 333.231 48.848 331.919 49.52C330.639 50.16 329.039 50.48 327.119 50.48ZM328.751 45.92C330.511 45.92 331.951 45.344 333.071 44.192C334.191 43.04 334.751 41.36 334.751 39.152V38.144L329.951 38.912C328.095 39.2 326.687 39.664 325.727 40.304C324.799 40.944 324.335 41.728 324.335 42.656C324.335 43.68 324.767 44.48 325.631 45.056C326.495 45.632 327.535 45.92 328.751 45.92ZM358.339 50C355.427 50 353.235 49.248 351.763 47.744C350.323 46.208 349.603 43.968 349.603 41.024V30.128H345.811C345.491 30.128 345.219 30.016 344.995 29.792C344.771 29.536 344.659 29.248 344.659 28.928V26.192C344.659 25.872 344.771 25.6 344.995 25.376C345.219 25.152 345.491 25.04 345.811 25.04H349.603V17.072C349.603 16.72 349.715 16.448 349.939 16.256C350.163 16.032 350.435 15.92 350.755 15.92H354.643C354.995 15.92 355.267 16.032 355.459 16.256C355.683 16.448 355.795 16.72 355.795 17.072V25.04H361.795C362.147 25.04 362.419 25.152 362.611 25.376C362.835 25.568 362.947 25.84 362.947 26.192V28.928C362.947 29.28 362.835 29.568 362.611 29.792C362.387 30.016 362.115 30.128 361.795 30.128H355.795V40.544C355.795 41.92 356.035 42.96 356.515 43.664C356.995 44.368 357.795 44.72 358.915 44.72H362.227C362.547 44.72 362.819 44.832 363.043 45.056C363.267 45.28 363.379 45.552 363.379 45.872V48.848C363.379 49.168 363.267 49.44 363.043 49.664C362.851 49.888 362.579 50 362.227 50H358.339ZM378.389 50.48C374.837 50.48 372.005 49.456 369.893 47.408C367.813 45.328 366.709 42.416 366.581 38.672L366.533 37.472L366.581 36.272C366.741 32.624 367.861 29.76 369.941 27.68C372.053 25.6 374.869 24.56 378.389 24.56C382.165 24.56 385.077 25.712 387.125 28.016C389.205 30.32 390.245 33.392 390.245 37.232V38.24C390.245 38.56 390.133 38.832 389.909 39.056C389.685 39.28 389.397 39.392 389.045 39.392H373.109V39.776C373.173 41.536 373.653 43.024 374.549 44.24C375.477 45.424 376.741 46.016 378.341 46.016C380.229 46.016 381.749 45.28 382.901 43.808C383.189 43.456 383.413 43.232 383.573 43.136C383.765 43.04 384.037 42.992 384.389 42.992H388.517C388.805 42.992 389.045 43.088 389.237 43.28C389.461 43.44 389.573 43.648 389.573 43.904C389.573 44.672 389.109 45.584 388.181 46.64C387.285 47.664 385.989 48.56 384.293 49.328C382.597 50.096 380.629 50.48 378.389 50.48ZM383.717 35.36V35.216C383.717 33.328 383.237 31.808 382.277 30.656C381.349 29.504 380.053 28.928 378.389 28.928C376.725 28.928 375.429 29.504 374.501 30.656C373.573 31.808 373.109 33.328 373.109 35.216V35.36H383.717Z" fill="#9944EE"/>
</svg>
